<svg width="16" height="16" viewBox="0 0 16 16" fill="none" xmlns="http://www.w3.org/2000/svg">
<path d="M10.6667 12.6666C10.3 12.6666 9.98622 12.5362 9.72533 12.2753C9.46444 12.0144 9.33378 11.7004 9.33333 11.3333V4.66665C9.33333 4.29998 9.464 3.9862 9.72533 3.72531C9.98667 3.46443 10.3004 3.33376 10.6667 3.33331C11.0329 3.33287 11.3469 3.46354 11.6087 3.72531C11.8704 3.98709 12.0009 4.30087 12 4.66665V11.3333C12 11.7 11.8696 12.014 11.6087 12.2753C11.3478 12.5366 11.0338 12.6671 10.6667 12.6666ZM5.33333 12.6666C4.96667 12.6666 4.65289 12.5362 4.392 12.2753C4.13111 12.0144 4.00044 11.7004 4 11.3333V4.66665C4 4.29998 4.13067 3.9862 4.392 3.72531C4.65333 3.46443 4.96711 3.33376 5.33333 3.33331C5.69956 3.33287 6.01356 3.46354 6.27533 3.72531C6.53711 3.98709 6.66756 4.30087 6.66667 4.66665V11.3333C6.66667 11.7 6.53622 12.014 6.27533 12.2753C6.01444 12.5366 5.70044 12.6671 5.33333 12.6666Z" fill="white"/>
</svg>
